<svg xmlns="http://www.w3.org/2000/svg" width="900" height="600" viewBox="0 0 900 600" role="img" aria-label="Premium salon visual">
  <defs>
    <linearGradient id="bg" x1="0" y1="0" x2="1" y2="1">
      <stop offset="0%" stop-color="#13121b"/>
      <stop offset="100%" stop-color="#3a2c3f"/>
    </linearGradient>
    <radialGradient id="glow" cx="0.2" cy="0.15" r="0.7">
      <stop offset="0%" stop-color="#f2d08a" stop-opacity="0.55"/>
      <stop offset="100%" stop-color="#f2d08a" stop-opacity="0"/>
    </radialGradient>
    <linearGradient id="panel" x1="0" y1="0" x2="1" y2="0">
      <stop offset="0%" stop-color="#201a2c"/>
      <stop offset="100%" stop-color="#2b2234"/>
    </linearGradient>
  </defs>
  <rect width="900" height="600" rx="48" fill="url(#bg)"/>
  <rect width="900" height="600" rx="48" fill="url(#glow)"/>
  <rect x="80" y="90" width="360" height="170" rx="20" fill="url(#panel)" stroke="#f2d08a" stroke-opacity="0.35"/>
  <rect x="110" y="120" width="300" height="16" rx="8" fill="#f2d08a" fill-opacity="0.65"/>
  <rect x="110" y="150" width="220" height="10" rx="5" fill="#ffffff" fill-opacity="0.18"/>
  <rect x="110" y="170" width="260" height="10" rx="5" fill="#ffffff" fill-opacity="0.12"/>
  <rect x="470" y="120" width="340" height="210" rx="26" fill="#1a1824" stroke="#ffffff" stroke-opacity="0.12"/>
  <rect x="500" y="150" width="120" height="120" rx="18" fill="#f2d08a" fill-opacity="0.15"/>
  <rect x="640" y="150" width="140" height="16" rx="8" fill="#f2d08a" fill-opacity="0.6"/>
  <rect x="640" y="180" width="120" height="10" rx="5" fill="#ffffff" fill-opacity="0.2"/>
  <rect x="640" y="200" width="90" height="10" rx="5" fill="#ffffff" fill-opacity="0.12"/>
  <rect x="120" y="300" width="660" height="190" rx="26" fill="#15141e" stroke="#f2d08a" stroke-opacity="0.25"/>
  <rect x="150" y="330" width="180" height="120" rx="16" fill="#ffffff" fill-opacity="0.06"/>
  <rect x="360" y="330" width="180" height="120" rx="16" fill="#ffffff" fill-opacity="0.08"/>
  <rect x="570" y="330" width="180" height="120" rx="16" fill="#ffffff" fill-opacity="0.04"/>
  <circle cx="760" cy="100" r="38" fill="#f2d08a" fill-opacity="0.18"/>
  <circle cx="720" cy="520" r="52" fill="#9a86c8" fill-opacity="0.18"/>
  <circle cx="120" cy="520" r="36" fill="#ffffff" fill-opacity="0.08"/>
</svg>
